<svg width="22" height="18" viewBox="0 0 22 18" fill="none" xmlns="http://www.w3.org/2000/svg">
<path d="M21.2806 7.9703L13.7806 0.470301C13.6757 0.365349 13.5421 0.293843 13.3967 0.264825C13.2512 0.235808 13.1004 0.250582 12.9633 0.30728C12.8262 0.363978 12.709 0.460053 12.6265 0.583355C12.5441 0.706657 12.5 0.851647 12.4999 0.999989V4.7828C10.0681 4.99093 7.38213 6.18155 5.17244 8.05561C2.51182 10.3131 0.855255 13.2222 0.507443 16.2466C0.480263 16.4817 0.527938 16.7194 0.643684 16.9259C0.75943 17.1323 0.937349 17.297 1.15212 17.3965C1.36689 17.496 1.60757 17.5252 1.83991 17.48C2.07225 17.4348 2.28441 17.3175 2.44619 17.1447C3.47744 16.0469 7.14682 12.5753 12.4999 12.2697V16C12.5 16.1483 12.5441 16.2933 12.6265 16.4166C12.709 16.5399 12.8262 16.636 12.9633 16.6927C13.1004 16.7494 13.2512 16.7642 13.3967 16.7352C13.5421 16.7061 13.6757 16.6346 13.7806 16.5297L21.2806 9.02968C21.4208 8.88908 21.4996 8.69859 21.4996 8.49999C21.4996 8.30139 21.4208 8.1109 21.2806 7.9703ZM13.9999 14.1897V11.5C13.9999 11.3011 13.9209 11.1103 13.7803 10.9697C13.6396 10.829 13.4489 10.75 13.2499 10.75C10.6174 10.75 8.05338 11.4372 5.629 12.7937C4.39427 13.4877 3.24383 14.322 2.20057 15.28C2.74432 13.045 4.11494 10.9197 6.14276 9.19936C8.31963 7.35343 10.9765 6.24999 13.2499 6.24999C13.4489 6.24999 13.6396 6.17097 13.7803 6.03032C13.9209 5.88967 13.9999 5.6989 13.9999 5.49999V2.81124L19.6896 8.49999L13.9999 14.1897Z" fill="#808080"/>
</svg>
