<svg width="23" height="17" viewBox="0 0 23 17" fill="none" xmlns="http://www.w3.org/2000/svg">
<path d="M23 9.75C23 9.94891 22.921 10.1397 22.7804 10.2803C22.6397 10.421 22.4489 10.5 22.25 10.5H20.75V12C20.75 12.1989 20.671 12.3897 20.5304 12.5303C20.3897 12.671 20.1989 12.75 20 12.75C19.8011 12.75 19.6104 12.671 19.4697 12.5303C19.329 12.3897 19.25 12.1989 19.25 12V10.5H17.75C17.5511 10.5 17.3604 10.421 17.2197 10.2803C17.079 10.1397 17 9.94891 17 9.75C17 9.55108 17.079 9.36032 17.2197 9.21967C17.3604 9.07901 17.5511 9 17.75 9H19.25V7.5C19.25 7.30108 19.329 7.11032 19.4697 6.96967C19.6104 6.82901 19.8011 6.75 20 6.75C20.1989 6.75 20.3897 6.82901 20.5304 6.96967C20.671 7.11032 20.75 7.30108 20.75 7.5V9H22.25C22.4489 9 22.6397 9.07901 22.7804 9.21967C22.921 9.36032 23 9.55108 23 9.75ZM12.5 11.7825C13.6757 11.0502 14.581 9.95495 15.0788 8.66238C15.5766 7.36981 15.6399 5.95028 15.259 4.61855C14.8782 3.28681 14.074 2.11534 12.9682 1.28135C11.8623 0.447364 10.5148 -0.00375366 9.12972 -0.00375366C7.74461 -0.00375366 6.39718 0.447364 5.29128 1.28135C4.18539 2.11534 3.3812 3.28681 3.00039 4.61855C2.61958 5.95028 2.68286 7.36981 3.18066 8.66238C3.67846 9.95495 4.58369 11.0502 5.75941 11.7825C3.82347 12.4162 2.08159 13.6003 0.68097 15.2672C0.589274 15.3762 0.530511 15.509 0.511555 15.6502C0.492599 15.7914 0.514234 15.935 0.573929 16.0643C0.633624 16.1937 0.728911 16.3033 0.848642 16.3805C0.968374 16.4576 1.1076 16.4991 1.25003 16.5H17C17.1429 16.5001 17.2829 16.4595 17.4035 16.3827C17.524 16.306 17.6202 16.1964 17.6806 16.0669C17.7409 15.9373 17.7631 15.7933 17.7443 15.6516C17.7256 15.5099 17.6667 15.3765 17.5747 15.2672C16.1732 13.6003 14.4313 12.4162 12.5 11.7825Z" fill="#53B1FD"/>
</svg>
