<svg width="23" height="19" viewBox="0 0 23 19" fill="none" xmlns="http://www.w3.org/2000/svg">
<path d="M12.0084 3.37938C12.0505 2.79734 12.2427 2.23614 12.5663 1.75057C12.89 1.26499 13.334 0.871629 13.8551 0.608882C14.3761 0.346135 14.9564 0.222979 15.5393 0.251437C16.1221 0.279896 16.6876 0.458995 17.1806 0.771252C17.237 0.80813 17.2824 0.859508 17.312 0.919987C17.3417 0.980467 17.3545 1.04782 17.3491 1.11496C17.3437 1.1821 17.3204 1.24655 17.2815 1.30155C17.2426 1.35655 17.1896 1.40005 17.1281 1.4275C16.2711 1.81307 15.5437 2.43784 15.0331 3.22678C14.5226 4.01572 14.2507 4.93528 14.25 5.875C14.25 5.98469 14.25 6.09438 14.2612 6.20219C14.2664 6.27033 14.2529 6.3386 14.2221 6.3996C14.1913 6.4606 14.1444 6.51202 14.0865 6.54831C14.0285 6.5846 13.9618 6.60438 13.8935 6.6055C13.8252 6.60663 13.7578 6.58906 13.6987 6.55469C13.1463 6.23866 12.6944 5.77284 12.3953 5.211C12.0962 4.64915 11.9621 4.01418 12.0084 3.37938ZM22.5 13.0572C22.5013 13.4858 22.3826 13.9061 22.1573 14.2707C21.9319 14.6352 21.609 14.9293 21.225 15.1197L21.1838 15.1384L17.5434 16.6891C17.5075 16.7049 17.4701 16.7175 17.4319 16.7266L11.4319 18.2266C11.3724 18.2419 11.3114 18.2497 11.25 18.25H1.5C1.10218 18.25 0.720644 18.092 0.43934 17.8107C0.158035 17.5294 0 17.1478 0 16.75V13C0 12.6022 0.158035 12.2206 0.43934 11.9393C0.720644 11.658 1.10218 11.5 1.5 11.5H4.18969L6.31031 9.37844C6.58838 9.09913 6.91904 8.87769 7.28319 8.72691C7.64733 8.57614 8.03775 8.49901 8.43188 8.5H13.125C13.5212 8.49996 13.9122 8.58959 14.2688 8.76216C14.6254 8.93474 14.9383 9.18579 15.1841 9.4965C15.4298 9.80721 15.6021 10.1695 15.6879 10.5563C15.7738 10.943 15.7709 11.3442 15.6797 11.7297L19.6022 10.8278C19.9437 10.7374 20.3013 10.7266 20.6477 10.7962C20.994 10.8659 21.3197 11.0141 21.5996 11.2295C21.8796 11.4449 22.1064 11.7217 22.2625 12.0386C22.4186 12.3554 22.4999 12.7039 22.5 13.0572ZM21 13.0572C20.9999 12.9332 20.9712 12.8109 20.9162 12.6997C20.8611 12.5886 20.7812 12.4917 20.6827 12.4164C20.5841 12.3411 20.4695 12.2896 20.3478 12.2658C20.2261 12.242 20.1006 12.2465 19.9809 12.2791L19.9519 12.2866L13.6706 13.7313C13.6155 13.7436 13.5593 13.7498 13.5028 13.75H10.5C10.3011 13.75 10.1103 13.671 9.96967 13.5303C9.82902 13.3897 9.75 13.1989 9.75 13C9.75 12.8011 9.82902 12.6103 9.96967 12.4697C10.1103 12.329 10.3011 12.25 10.5 12.25H13.125C13.4234 12.25 13.7095 12.1315 13.9205 11.9205C14.1315 11.7095 14.25 11.4234 14.25 11.125C14.25 10.8266 14.1315 10.5405 13.9205 10.3295C13.7095 10.1185 13.4234 10 13.125 10H8.43188C8.23482 9.99937 8.03961 10.0379 7.85758 10.1134C7.67555 10.1889 7.51035 10.2998 7.37156 10.4397L5.25 12.5603V16.75H11.1562L17.0091 15.2866L20.5716 13.7697C20.7012 13.7014 20.8097 13.5989 20.8852 13.4732C20.9608 13.3476 21.0005 13.2038 21 13.0572ZM15.75 5.875C15.75 6.54251 15.9479 7.19504 16.3188 7.75005C16.6896 8.30507 17.2167 8.73765 17.8334 8.9931C18.4501 9.24854 19.1287 9.31538 19.7834 9.18515C20.4381 9.05493 21.0395 8.73349 21.5115 8.26149C21.9835 7.78948 22.3049 7.18812 22.4352 6.53343C22.5654 5.87875 22.4985 5.20015 22.2431 4.58345C21.9876 3.96675 21.5551 3.43964 21 3.06879C20.445 2.69794 19.7925 2.5 19.125 2.5C18.2299 2.5 17.3715 2.85558 16.7385 3.48852C16.1056 4.12145 15.75 4.9799 15.75 5.875Z" fill="#53B1FD"/>
</svg>
