<svg width="20" height="20" viewBox="0 0 20 20" fill="none" xmlns="http://www.w3.org/2000/svg">
<path d="M10 0.25C8.07164 0.25 6.18657 0.821828 4.58319 1.89317C2.97982 2.96451 1.73013 4.48726 0.992179 6.26884C0.254225 8.05042 0.061142 10.0108 0.437348 11.9021C0.813554 13.7934 1.74215 15.5307 3.10571 16.8943C4.46928 18.2579 6.20656 19.1865 8.09787 19.5627C9.98919 19.9389 11.9496 19.7458 13.7312 19.0078C15.5127 18.2699 17.0355 17.0202 18.1068 15.4168C19.1782 13.8134 19.75 11.9284 19.75 10C19.7473 7.41498 18.7192 4.93661 16.8913 3.10872C15.0634 1.28084 12.585 0.25273 10 0.25ZM16.0113 12.7319C16.1818 12.8343 16.3047 13.0003 16.3529 13.1934C16.4011 13.3864 16.3706 13.5907 16.2681 13.7612C16.1657 13.9318 15.9997 14.0547 15.8066 14.1029C15.6136 14.1511 15.4093 14.1206 15.2388 14.0181L10.75 11.3247V16.1875C10.75 16.3864 10.671 16.5772 10.5303 16.7178C10.3897 16.8585 10.1989 16.9375 10 16.9375C9.80109 16.9375 9.61033 16.8585 9.46967 16.7178C9.32902 16.5772 9.25 16.3864 9.25 16.1875V11.3247L4.76125 14.0181C4.59069 14.1206 4.38641 14.1511 4.19337 14.1029C4.00032 14.0547 3.83432 13.9318 3.73188 13.7612C3.62944 13.5907 3.59895 13.3864 3.64713 13.1934C3.6953 13.0003 3.81819 12.8343 3.98875 12.7319L8.54219 10L3.98875 7.26813C3.81819 7.16569 3.6953 6.99968 3.64713 6.80664C3.59895 6.61359 3.62944 6.40932 3.73188 6.23875C3.83432 6.06818 4.00032 5.9453 4.19337 5.89712C4.38641 5.84895 4.59069 5.87944 4.76125 5.98187L9.25 8.67531V3.8125C9.25 3.61359 9.32902 3.42282 9.46967 3.28217C9.61033 3.14152 9.80109 3.0625 10 3.0625C10.1989 3.0625 10.3897 3.14152 10.5303 3.28217C10.671 3.42282 10.75 3.61359 10.75 3.8125V8.67531L15.2388 5.98187C15.3232 5.93115 15.4168 5.89756 15.5143 5.88302C15.6117 5.86848 15.7111 5.87327 15.8066 5.89712C15.9022 5.92098 15.9922 5.96342 16.0714 6.02204C16.1505 6.08065 16.2174 6.15429 16.2681 6.23875C16.3189 6.32321 16.3524 6.41683 16.367 6.51427C16.3815 6.6117 16.3767 6.71105 16.3529 6.80664C16.329 6.90222 16.2866 6.99218 16.228 7.07136C16.1693 7.15054 16.0957 7.2174 16.0113 7.26813L11.4578 10L16.0113 12.7319Z" fill="#53B1FD"/>
</svg>
